<svg xmlns="http://www.w3.org/2000/svg" viewBox="0 0 512 512"><defs><linearGradient id="g" x1="0" y1="0" x2="0" y2="1"><stop offset="0" stop-color="#2bd86a"/><stop offset="1" stop-color="#059f4c"/></linearGradient></defs><rect width="512" height="512" rx="118" fill="url(#g)"/><path d="M96 164 a52 52 0 0 1 52 -52 h216 a52 52 0 0 1 52 52 v140 a52 52 0 0 1 -52 52 h-166 l-68 74 20 -74 h-2 a52 52 0 0 1 -52 -52 z" fill="#fff"/><path d="M186 316 L198 208 L250 262 L276 198 L302 262 L354 208 L366 316 Z" fill="#07c160"/><rect x="186" y="316" width="180" height="24" rx="8" fill="#07c160"/></svg>